<?xml version="1.0" encoding="UTF-8"?>
<svg id="Layer_1" data-name="Layer 1" xmlns="http://www.w3.org/2000/svg" xmlns:xlink="http://www.w3.org/1999/xlink" viewBox="0 0 1080 1080">
  <defs>
    <style>
      .cls-1 {
        fill: url(#linear-gradient);
      }

      .cls-1, .cls-2 {
        stroke-width: 0px;
      }

      .cls-2 {
        fill: url(#linear-gradient-2);
      }
    </style>
    <linearGradient id="linear-gradient" x1="535.98" y1="884.07" x2="543.55" y2="182.46" gradientUnits="userSpaceOnUse">
      <stop offset="0" stop-color="#3f7df6"/>
      <stop offset="1" stop-color="#2ae4ff"/>
    </linearGradient>
    <linearGradient id="linear-gradient-2" x1="535.07" y1="996.62" x2="545.12" y2="65.39" xlink:href="#linear-gradient"/>
  </defs>
  <path class="cls-1" d="M684.98,595.36c-16.02-10.25-32.82-18.6-50.05-25.35,15.08-7.55,29.78-16.6,43.88-27.43,95.2-73.07,137.58-205.81,114.16-342.72-.82-15.26-12.53-27.71-27.46-29.7l-.31-.31h-458.96c-17.44,0-31.71,14.27-31.71,31.71v676.7c0,17.54,14.35,31.9,31.9,31.9h460.98c16.66,0,30.42-12.96,31.76-29.29,23.34-114.06-19.03-224.63-114.19-285.51ZM702.13,276.05c1.21,49.77-7.93,100.49-37.71,143.14-63.66,91.16-194.36,106.6-283.68,111.58v-254.72h321.39ZM380.74,604.92c89.36,3.86,224.71,15.53,289.85,93.29,26.54,31.68,36.68,68.7,37.72,105.75h-327.57v-199.03Z"/>
  <path class="cls-2" d="M69.57,50.5c-13.67,0-24.76,12.47-24.76,27.86h0v923.28h0c0,15.39,11.09,27.86,24.76,27.86h940.86c13.67,0,24.76-12.47,24.76-27.86h0V78.36h0c0-15.39-11.09-27.86-24.76-27.86H69.57ZM985.67,1001.64H94.33c-13.67,0-24.76-12.47-24.76-27.86V106.22c0-15.39,11.09-27.86,24.76-27.86h891.34c13.67,0,24.76,12.47,24.76,27.86v867.57c0,15.39-11.09,27.86-24.76,27.86Z"/>
</svg>